<?xml version="1.0" standalone="no"?>
<!DOCTYPE svg PUBLIC "-//W3C//DTD SVG 20010904//EN"
 "http://www.w3.org/TR/2001/REC-SVG-20010904/DTD/svg10.dtd">
<svg version="1.0" xmlns="http://www.w3.org/2000/svg"
 width="302.000000pt" height="302.000000pt" viewBox="0 0 302.000000 302.000000"
 preserveAspectRatio="xMidYMid meet">
<metadata>
Created by potrace 1.11, written by Peter Selinger 2001-2013
</metadata>
<g transform="translate(0.000000,302.000000) scale(0.100000,-0.100000)"
fill="#000000" stroke="none">
<path d="M1586 2378 c-14 -19 -16 -70 -16 -353 0 -261 3 -335 13 -350 14 -18
56 -23 229 -24 l56 -1 7 -66 c6 -51 4 -68 -6 -75 -8 -5 -308 -9 -668 -9 -611
0 -655 -1 -667 -17 -9 -13 -13 -52 -14 -128 0 -154 1 -155 135 -155 57 0 106
-4 109 -8 5 -8 -8 -65 -54 -237 -101 -377 -101 -380 -91 -408 8 -19 25 -29 83
-47 40 -13 96 -25 125 -28 45 -4 53 -2 66 19 9 13 20 42 26 64 5 22 19 76 31
120 12 44 24 91 27 105 2 14 8 34 13 45 4 11 15 49 23 85 14 58 59 228 73 273
5 16 31 17 417 15 l411 -3 13 -70 c20 -102 63 -294 78 -340 7 -22 29 -94 50
-159 38 -120 66 -166 102 -166 9 0 61 17 115 37 127 49 127 49 65 245 -56 180
-62 203 -87 322 -30 148 -37 136 83 136 138 0 137 -1 137 151 -1 79 -5 119
-14 132 -11 14 -31 17 -132 17 -65 0 -124 4 -131 8 -12 8 -21 121 -10 138 3 5
63 11 133 12 71 2 134 8 141 14 19 16 18 686 -1 711 -12 16 -45 17 -434 17
l-421 0 -15 -22z m569 -308 c20 -38 19 -69 -2 -92 -14 -15 -32 -18 -133 -18
-133 0 -145 6 -145 70 0 65 12 70 146 70 l118 0 16 -30z"/>
<path d="M560 1949 c-13 -6 -28 -15 -32 -22 -13 -21 -9 -231 5 -251 11 -16 46
-17 436 -19 405 -1 424 0 437 18 10 13 14 49 14 119 0 127 -5 142 -42 155 -40
14 -783 14 -818 0z"/>
</g>
</svg>
